<svg width="58" height="58" viewBox="0 0 58 58" fill="none" xmlns="http://www.w3.org/2000/svg">
<g clip-path="url(#clip0)">
<path d="M29.0009 25.7508C20.0052 25.7508 7.25087 39.6572 7.25087 48.4354C7.25087 52.3889 10.2879 54.7508 15.3777 54.7508C20.9103 54.7508 24.5636 51.9097 29.0009 51.9097C33.4766 51.9097 37.1401 54.7508 42.6241 54.7508C47.7138 54.7508 50.7509 52.3889 50.7509 48.4354C50.7509 39.6572 37.9965 25.7508 29.0009 25.7508ZM12.3168 24.3223C11.1387 20.3971 7.50915 17.8551 4.2104 18.6435C0.911651 19.432 -0.806826 23.2529 0.371299 27.1781C1.54942 31.1033 5.17896 33.6454 8.47771 32.8569C11.7765 32.0685 13.4949 28.2475 12.3168 24.3223V24.3223ZM21.914 21.9683C25.4189 21.0462 27.1725 16.3111 25.8313 11.3924C24.49 6.47373 20.5614 3.23502 17.0565 4.15713C13.5516 5.07924 11.798 9.81439 13.1392 14.7331C14.4805 19.6517 18.4102 22.8916 21.914 21.9683ZM53.7902 18.6447C50.4915 17.8562 46.8631 20.3983 45.6838 24.3235C44.5057 28.2486 46.2241 32.0696 49.5229 32.8581C52.8216 33.6465 56.45 31.1045 57.6293 27.1793C58.8074 23.2541 57.089 19.4331 53.7902 18.6447V18.6447ZM36.0877 21.9683C39.5927 22.8904 43.5213 19.6517 44.8625 14.7331C46.2038 9.81439 44.4502 5.08037 40.9452 4.15713C37.4403 3.23388 33.5117 6.47373 32.1705 11.3924C30.8292 16.3111 32.5828 21.0462 36.0877 21.9683V21.9683Z" fill="#818183"/>
</g>
<defs>
<clipPath id="clip0">
<rect width="58" height="58" fill="white"/>
</clipPath>
</defs>
</svg>
