<svg width="44" height="59" viewBox="0 0 44 59" fill="none" xmlns="http://www.w3.org/2000/svg">
<path d="M13.75 8.29688C13.75 3.71458 17.4436 0 22 0C26.5564 0 30.25 3.71458 30.25 8.29688C30.25 12.8791 26.5564 16.5938 22 16.5938C17.4436 16.5938 13.75 12.8791 13.75 8.29688ZM42.926 8.45509C41.4942 7.01501 39.1725 7.01501 37.7407 8.45509L27.8145 18.4375H16.1853L6.25932 8.45509C4.82749 7.01501 2.5058 7.01501 1.07396 8.45509C-0.357987 9.89518 -0.357987 12.2299 1.07396 13.67L11.9167 24.5742V55.3125C11.9167 57.349 13.5583 59 15.5833 59H17.4167C19.4417 59 21.0833 57.349 21.0833 55.3125V42.4062H22.9167V55.3125C22.9167 57.349 24.5583 59 26.5833 59H28.4167C30.4417 59 32.0833 57.349 32.0833 55.3125V24.5742L42.926 13.6699C44.358 12.2298 44.358 9.89518 42.926 8.45509Z" fill="#818183"/>
</svg>
