<svg width="73" height="58" viewBox="0 0 73 58" fill="none" xmlns="http://www.w3.org/2000/svg">
<g clip-path="url(#clip0)">
<path d="M36.25 16.3125C30.2438 16.3125 25.375 21.9924 25.375 29C25.375 36.0064 30.2438 41.6875 36.25 41.6875C42.2539 41.6875 47.125 36.0087 47.125 29C47.125 21.9924 42.2562 16.3125 36.25 16.3125ZM40.7812 35.3438C40.7812 35.8445 40.3757 36.25 39.875 36.25H32.625C32.1243 36.25 31.7188 35.8445 31.7188 35.3438V33.5312C31.7188 33.0305 32.1243 32.625 32.625 32.625H34.4375V26.3447L34.3843 26.3798C34.2853 26.4459 34.1743 26.4918 34.0575 26.5149C33.9408 26.538 33.8207 26.5379 33.704 26.5145C33.5873 26.4911 33.4764 26.445 33.3775 26.3787C33.2787 26.3125 33.1939 26.2274 33.128 26.1283L32.122 24.6205C32.056 24.5216 32.0101 24.4105 31.987 24.2938C31.9639 24.1771 31.964 24.0569 31.9873 23.9403C32.0107 23.8236 32.0568 23.7127 32.1231 23.6138C32.1894 23.515 32.2745 23.4302 32.3735 23.3643L34.1101 22.2065C34.5566 21.9088 35.0813 21.75 35.6179 21.75H37.1562C37.657 21.75 38.0625 22.1555 38.0625 22.6562V32.625H39.875C40.3757 32.625 40.7812 33.0305 40.7812 33.5312V35.3438ZM68.875 7.25H3.625C1.62332 7.25 0 8.87332 0 10.875V47.125C0 49.1267 1.62332 50.75 3.625 50.75H68.875C70.8767 50.75 72.5 49.1267 72.5 47.125V10.875C72.5 8.87332 70.8767 7.25 68.875 7.25ZM67.0625 38.0625C63.058 38.0625 59.8125 41.308 59.8125 45.3125H12.6875C12.6875 41.308 9.44199 38.0625 5.4375 38.0625V19.9375C9.44199 19.9375 12.6875 16.692 12.6875 12.6875H59.8125C59.8125 16.692 63.058 19.9375 67.0625 19.9375V38.0625Z" fill="#818183"/>
</g>
<defs>
<clipPath id="clip0">
<rect width="72.5" height="58" fill="white"/>
</clipPath>
</defs>
</svg>
