<svg width="58" height="58" viewBox="0 0 58 58" fill="none" xmlns="http://www.w3.org/2000/svg">
<g clip-path="url(#clip0)">
<path d="M39.5992 11.1905C33.5288 11.1905 28.5153 7.2502 20.8832 7.2502C18.0562 7.2502 15.5239 7.74683 13.1749 8.61105C13.5005 7.76084 13.639 6.85048 13.5812 5.94192C13.3804 2.72065 10.7397 0.136821 7.51485 0.00564173C3.89064 -0.14185 0.90625 2.75249 0.90625 6.34395C0.90625 8.49924 1.98208 10.4023 3.625 11.5487V55.2814C3.625 56.783 4.84221 58.0002 6.34375 58.0002H8.15625C9.65779 58.0002 10.875 56.783 10.875 55.2814V44.5877C14.0821 43.2211 18.0776 42.0817 23.8383 42.0817C29.9089 42.0817 34.9222 46.022 42.5543 46.022C48.011 46.022 52.3721 44.1762 56.4319 41.3935C57.4155 40.7194 58 39.6 58 38.4076V10.869C58 8.21899 55.2508 6.46573 52.8474 7.582C48.9576 9.38861 44.1866 11.1905 39.5992 11.1905Z" fill="#818183"/>
</g>
<defs>
<clipPath id="clip0">
<rect width="58" height="58" fill="white"/>
</clipPath>
</defs>
</svg>
