<svg width="73" height="58" viewBox="0 0 73 58" fill="none" xmlns="http://www.w3.org/2000/svg">
<g clip-path="url(#clip0)">
<path d="M17.2301 26.757C16.8336 25.3863 16.3465 22.9961 16.3465 22.9961H16.2898C16.2898 22.9961 15.8027 25.3863 15.4062 26.757L14.1488 31.0051H18.4648L17.2301 26.757ZM69.7812 10.875H38.0625V47.125H69.7812C71.2879 47.125 72.5 45.9129 72.5 44.4062V13.5938C72.5 12.0871 71.2879 10.875 69.7812 10.875ZM67.0625 24.4688C67.0625 25.2164 66.4508 25.8281 65.7031 25.8281H64.4117C63.6301 28.5016 61.9535 31.1977 59.5746 33.7465C60.5262 34.4715 61.5117 35.1625 62.5312 35.7855C63.1543 36.1707 63.3582 36.975 62.9957 37.6207L62.1008 39.1953C61.7156 39.8637 60.866 40.0789 60.209 39.6824C58.7816 38.7988 57.4336 37.8586 56.1988 36.8617C54.9641 37.8473 53.6273 38.7988 52.1887 39.6824C51.5316 40.0789 50.682 39.8637 50.2969 39.1953L49.402 37.6207C49.0395 36.9863 49.2434 36.1707 49.8777 35.7855C50.9312 35.1398 51.9168 34.4602 52.8344 33.7465C51.9395 32.7949 51.1465 31.8207 50.4555 30.8352C50.0023 30.1895 50.2063 29.2945 50.8746 28.898L51.6109 28.4562L52.4379 27.9691C53.0496 27.6066 53.8426 27.7766 54.2504 28.3543C54.8168 29.1473 55.4738 29.9402 56.2215 30.7219C57.7508 29.1133 58.9176 27.448 59.6199 25.8281H46.6719C45.9242 25.8281 45.3125 25.2164 45.3125 24.4688V22.6562C45.3125 21.9086 45.9242 21.2969 46.6719 21.2969H53.9219V19.4844C53.9219 18.7367 54.5336 18.125 55.2812 18.125H57.0938C57.8414 18.125 58.4531 18.7367 58.4531 19.4844V21.2969H65.7031C66.4508 21.2969 67.0625 21.9086 67.0625 22.6562V24.4688ZM0 13.5938V44.4062C0 45.9129 1.21211 47.125 2.71875 47.125H34.4375V10.875H2.71875C1.21211 10.875 0 12.0871 0 13.5938ZM6.67227 38.0738L13.1859 18.918C13.3785 18.3629 13.8883 18.0004 14.4773 18.0004H18.159C18.7367 18.0004 19.2578 18.3742 19.4504 18.918L25.9641 38.0738C26.2586 38.9574 25.6129 39.875 24.6727 39.875H22.0785C21.7854 39.8748 21.5001 39.7798 21.2653 39.6043C21.0306 39.4287 20.8588 39.1819 20.7758 38.9008L19.7109 35.2871H12.8914L11.8605 38.8895C11.6906 39.4672 11.1582 39.875 10.5578 39.875H7.96367C7.03477 39.875 6.37773 38.9574 6.67227 38.0738Z" fill="#818183"/>
</g>
<defs>
<clipPath id="clip0">
<rect width="72.5" height="58" fill="white"/>
</clipPath>
</defs>
</svg>
