<svg width="51" height="58" viewBox="0 0 51 58" fill="none" xmlns="http://www.w3.org/2000/svg">
<g clip-path="url(#clip0)">
<path d="M12.1562 4.15638C11.8164 3.81673 11.3555 3.62593 10.875 3.62593C10.3945 3.62593 9.93368 3.81673 9.5938 4.15638L0.531305 15.0314C-0.606039 16.1699 0.201657 18.1251 1.81252 18.1251H7.25002V52.5626C7.25002 53.0433 7.44098 53.5043 7.78088 53.8442C8.12079 54.1841 8.58181 54.3751 9.06252 54.3751H12.6875C13.1682 54.3751 13.6292 54.1841 13.9691 53.8442C14.3091 53.5043 14.5 53.0433 14.5 52.5626V18.1251H19.9375C21.5472 18.1251 22.3595 16.1721 21.2187 15.0314L12.1562 4.15638ZM45.3125 47.1251H43.5V34.4376C43.5 33.9569 43.3091 33.4959 42.9691 33.156C42.6292 32.8161 42.1682 32.6251 41.6875 32.6251H36.25C35.914 32.6254 35.5847 32.7191 35.2988 32.8957C35.0129 33.0723 34.7818 33.325 34.6312 33.6254L32.8187 37.2504C32.6803 37.5266 32.6147 37.8336 32.6283 38.1423C32.6419 38.451 32.7342 38.7511 32.8964 39.014C33.0586 39.277 33.2853 39.4942 33.555 39.6449C33.8248 39.7956 34.1285 39.8748 34.4375 39.8751H36.25V47.1251H34.4375C33.9568 47.1251 33.4958 47.316 33.1559 47.656C32.816 47.9959 32.625 48.4569 32.625 48.9376V52.5626C32.625 53.0433 32.816 53.5043 33.1559 53.8442C33.4958 54.1841 33.9568 54.3751 34.4375 54.3751H45.3125C45.7932 54.3751 46.2542 54.1841 46.5941 53.8442C46.9341 53.5043 47.125 53.0433 47.125 52.5626V48.9376C47.125 48.4569 46.9341 47.9959 46.5941 47.656C46.2542 47.316 45.7932 47.1251 45.3125 47.1251ZM37.4021 3.95474C35.9254 4.35918 34.5771 5.13573 33.4863 6.21012C32.3954 7.2845 31.5985 8.62079 31.1716 10.0912C29.5551 15.8742 33.572 21.1667 38.9688 21.7059C38.2572 22.3062 37.4614 22.799 36.6069 23.1684C35.7493 23.5535 35.3834 24.581 35.6802 25.4725L36.8017 27.7381C37.1268 28.7158 38.2211 29.2663 39.1693 28.8608C45.7396 26.0548 48.9398 21.8815 48.9398 13.9076V12.6876C48.9375 6.88646 43.457 2.34049 37.4021 3.95474V3.95474ZM39.875 14.9532C39.4269 14.9532 38.9889 14.8203 38.6163 14.5714C38.2437 14.3224 37.9533 13.9686 37.7819 13.5546C37.6104 13.1406 37.5655 12.6851 37.6529 12.2456C37.7403 11.8061 37.9561 11.4024 38.273 11.0856C38.5898 10.7687 38.9935 10.5529 39.433 10.4655C39.8725 10.3781 40.328 10.4229 40.742 10.5944C41.156 10.7659 41.5099 11.0563 41.7588 11.4289C42.0078 11.8015 42.1406 12.2395 42.1406 12.6876C42.1406 13.2885 41.9019 13.8647 41.4771 14.2896C41.0522 14.7145 40.4759 14.9532 39.875 14.9532Z" fill="#818183"/>
</g>
<defs>
<clipPath id="clip0">
<rect width="50.75" height="58" fill="white"/>
</clipPath>
</defs>
</svg>
