<svg width="512" height="512" viewBox="0 0 512 512" fill="none" xmlns="http://www.w3.org/2000/svg">
<g clip-path="url(#clip0)">
<path d="M360.6 60.9401C361.569 61.91 362.719 62.6795 363.986 63.2046C365.252 63.7296 366.609 63.9998 367.98 63.9998C369.351 63.9998 370.708 63.7296 371.975 63.2046C373.241 62.6795 374.391 61.91 375.36 60.9401L396.93 39.3801C397.9 38.4114 398.67 37.261 399.195 35.9946C399.72 34.7283 399.99 33.3709 399.99 32.0001C399.99 30.6292 399.72 29.2718 399.195 28.0055C398.67 26.7392 397.9 25.5888 396.93 24.6201L375.35 3.06007C371.27 -1.00993 364.67 -1.00993 360.59 3.06007L339.02 24.6201C338.05 25.5888 337.281 26.7392 336.756 28.0055C336.231 29.2718 335.96 30.6292 335.96 32.0001C335.96 33.3709 336.231 34.7283 336.756 35.9946C337.281 37.261 338.05 38.4114 339.02 39.3801L360.6 60.9401ZM412.11 192C385.42 192 360.34 202.39 341.47 221.25L317.22 245.5C310.44 252.27 301.44 256 291.84 256H245C255.54 233.9 259.17 207.89 252.73 180.77C242.63 138.22 206.37 104.66 163.21 97.5801C127.06 91.6501 92.3101 102.62 67.2001 126.36C59.8401 133.32 60.2301 145.21 68.3201 151.29L94.4701 170.92C100.19 175.22 108.13 175.24 113.67 170.71C122.12 163.81 132.69 160 143.94 160C170.41 160 191.95 181.53 191.95 208C191.95 234.47 170.41 256 143.94 256H112.04C100.08 256 92.3001 268.58 97.6501 279.28L113.74 311.45C116.27 316.51 121.34 319.55 126.91 320H159.94C195.24 320 223.95 348.7 223.95 384C223.95 419.3 195.24 448 159.94 448C63.9202 448 37.5901 393.98 14.7901 355.97C10.2601 348.42 0.020147 352.39 0.000147012 361.19C-0.089853 416 41.1302 512 159.94 512C230.53 512 287.96 454.58 287.96 384C287.96 360.58 281.18 338.9 270.15 320H291.84C318.53 320 343.61 309.61 362.48 290.75L386.73 266.5C393.51 259.73 402.51 256 412.11 256C431.89 256 447.99 272.09 447.99 291.88V392C447.99 405.23 429.22 416 415.98 416C376.58 416 349.31 391.76 334.16 373.11C329.39 367.24 319.96 370.57 319.96 378.13V416C319.96 416 319.96 480 415.98 480C464.52 480 512 440.53 512 392V291.88C512 236.8 467.2 192 412.11 192ZM454.29 67.2701C368.74 132.39 285.24 70.0201 281.71 67.3201C275.69 62.7001 267.27 62.9401 261.57 67.8701C255.83 72.7901 254.3 81.0401 257.91 87.6701C259.52 90.6201 298.28 160.01 376.71 160.01C456.63 160.01 475.49 128.65 478.46 122.35C479.48 120.23 479.99 117.88 479.99 115.52V80.0001C479.99 66.7801 464.85 59.3101 454.29 67.2701Z" fill="#818183"/>
</g>
<defs>
<clipPath id="clip0">
<rect width="512" height="512" fill="white"/>
</clipPath>
</defs>
</svg>
