<svg width="58" height="58" viewBox="0 0 58 58" fill="none" xmlns="http://www.w3.org/2000/svg">
<g clip-path="url(#clip0)">
<path d="M33.7807 17.7398C27.8108 14.8285 20.81 16.5504 16.7659 21.4555L23.019 27.7086C23.7327 28.4223 23.7327 29.5664 23.019 30.2688C22.6678 30.6199 22.2034 30.8012 21.7389 30.8012C21.2745 30.8012 20.81 30.6199 20.4589 30.2688L14.7721 24.582L0.260813 54.341C-0.0677027 55.0207 -0.0903589 55.8477 0.260813 56.5727C0.872532 57.8301 2.40183 58.3512 3.65925 57.7395L18.7936 50.3535L13.2202 44.7801C12.5065 44.0777 12.5065 42.9223 13.2202 42.2199C13.9339 41.5176 15.078 41.5176 15.7803 42.2199L22.2374 48.677L33.7921 43.0355C36.5108 41.7102 38.8331 39.4898 40.2604 36.5672C43.6702 29.5777 40.7702 21.1496 33.7807 17.7398V17.7398ZM44.2139 13.7863C46.4229 9.17578 45.2788 3.72695 40.7815 0C35.0835 4.72383 34.8342 12.1777 39.8866 17.2074L40.7928 18.1137C45.8225 23.166 53.2878 22.9168 58.0003 17.2188C54.2733 12.7215 48.8245 11.5773 44.2139 13.7863V13.7863Z" fill="#818183"/>
</g>
<defs>
<clipPath id="clip0">
<rect width="58" height="58" fill="white"/>
</clipPath>
</defs>
</svg>
