<svg width="51" height="58" viewBox="0 0 51 58" fill="none" xmlns="http://www.w3.org/2000/svg">
<g clip-path="url(#clip0)">
<path d="M48.9375 47.125H46.2856L31.4786 6.08207C31.2347 5.36539 30.7725 4.74305 30.1569 4.30239C29.5413 3.86172 28.8032 3.62485 28.0462 3.625H22.7038C21.9468 3.62485 21.2087 3.86172 20.5931 4.30239C19.9775 4.74305 19.5153 5.36539 19.2714 6.08207L4.46441 47.125H1.8125C1.3318 47.125 0.870779 47.316 0.530869 47.6559C0.190959 47.9958 0 48.4568 0 48.9375L0 52.5625C0 53.0432 0.190959 53.5042 0.530869 53.8441C0.870779 54.184 1.3318 54.375 1.8125 54.375H16.3125C16.7932 54.375 17.2542 54.184 17.5941 53.8441C17.934 53.5042 18.125 53.0432 18.125 52.5625V48.9375C18.125 48.4568 17.934 47.9958 17.5941 47.6559C17.2542 47.316 16.7932 47.125 16.3125 47.125H14.0945L16.7339 39.875H34.0161L36.6555 47.125H34.4375C33.9568 47.125 33.4958 47.316 33.1559 47.6559C32.816 47.9958 32.625 48.4568 32.625 48.9375V52.5625C32.625 53.0432 32.816 53.5042 33.1559 53.8441C33.4958 54.184 33.9568 54.375 34.4375 54.375H48.9375C49.4182 54.375 49.8792 54.184 50.2191 53.8441C50.559 53.5042 50.75 53.0432 50.75 52.5625V48.9375C50.75 48.4568 50.559 47.9958 50.2191 47.6559C49.8792 47.316 49.4182 47.125 48.9375 47.125ZM20.0338 30.8125L25.375 16.1437L30.7162 30.8125H20.0338Z" fill="#818183"/>
</g>
<defs>
<clipPath id="clip0">
<rect width="50.75" height="58" fill="white"/>
</clipPath>
</defs>
</svg>
